<mxfile host="app.diagrams.net" agent="Mozilla/5.0 (X11; Linux x86_64) AppleWebKit/537.36 (KHTML, like Gecko) Chrome/133.0.0.0 Safari/537.36" version="26.0.16">
  <diagram name="Page-1" id="f4SzSPc7J2c5tdd1Q7-J">
    <mxGraphModel grid="1" page="1" gridSize="10" guides="1" tooltips="1" connect="1" arrows="1" fold="1" pageScale="1" pageWidth="850" pageHeight="1100" math="0" shadow="0">
      <root>
        <mxCell id="0" />
        <mxCell id="1" parent="0" />
        <mxCell id="QMyI6lvO8tOyy5A7zQMX-5" value="&lt;font style=&quot;font-size: 24px;&quot;&gt;User&lt;/font&gt;" style="rounded=1;whiteSpace=wrap;html=1;" vertex="1" parent="1">
          <mxGeometry x="40" y="120" width="120" height="60" as="geometry" />
        </mxCell>
        <mxCell id="QMyI6lvO8tOyy5A7zQMX-6" value="&lt;font style=&quot;font-size: 24px;&quot;&gt;Frontend&lt;/font&gt;" style="rounded=1;whiteSpace=wrap;html=1;" vertex="1" parent="1">
          <mxGeometry x="280" y="120" width="120" height="60" as="geometry" />
        </mxCell>
        <mxCell id="QMyI6lvO8tOyy5A7zQMX-7" value="&lt;font style=&quot;font-size: 23px;&quot;&gt;Backend&lt;/font&gt;" style="rounded=1;whiteSpace=wrap;html=1;" vertex="1" parent="1">
          <mxGeometry x="520" y="120" width="120" height="60" as="geometry" />
        </mxCell>
        <mxCell id="QMyI6lvO8tOyy5A7zQMX-8" value="&lt;font style=&quot;font-size: 24px;&quot;&gt;Keycloak&lt;/font&gt;" style="rounded=1;whiteSpace=wrap;html=1;" vertex="1" parent="1">
          <mxGeometry x="760" y="120" width="120" height="60" as="geometry" />
        </mxCell>
        <mxCell id="QMyI6lvO8tOyy5A7zQMX-9" value="&lt;font style=&quot;font-size: 24px;&quot;&gt;Database&lt;/font&gt;" style="rounded=1;whiteSpace=wrap;html=1;" vertex="1" parent="1">
          <mxGeometry x="1000" y="120" width="120" height="60" as="geometry" />
        </mxCell>
        <mxCell id="QMyI6lvO8tOyy5A7zQMX-10" value="&lt;font style=&quot;font-size: 24px;&quot;&gt;Polytech LDAP&lt;/font&gt;" style="rounded=1;whiteSpace=wrap;html=1;" vertex="1" parent="1">
          <mxGeometry x="1240" y="120" width="120" height="60" as="geometry" />
        </mxCell>
        <mxCell id="QMyI6lvO8tOyy5A7zQMX-11" value="&lt;font style=&quot;font-size: 24px;&quot;&gt;Google OAuth&lt;/font&gt;" style="rounded=1;whiteSpace=wrap;html=1;" vertex="1" parent="1">
          <mxGeometry x="1480" y="120" width="120" height="60" as="geometry" />
        </mxCell>
        <mxCell id="QMyI6lvO8tOyy5A7zQMX-15" value="" style="endArrow=none;dashed=1;html=1;dashPattern=1 3;strokeWidth=2;rounded=0;entryX=0.5;entryY=1;entryDx=0;entryDy=0;" edge="1" parent="1" target="QMyI6lvO8tOyy5A7zQMX-5">
          <mxGeometry width="50" height="50" relative="1" as="geometry">
            <mxPoint x="110" y="3170" as="sourcePoint" />
            <mxPoint x="1100" y="890" as="targetPoint" />
          </mxGeometry>
        </mxCell>
        <mxCell id="QMyI6lvO8tOyy5A7zQMX-16" value="" style="endArrow=none;dashed=1;html=1;dashPattern=1 3;strokeWidth=2;rounded=0;entryX=0.5;entryY=1;entryDx=0;entryDy=0;" edge="1" parent="1">
          <mxGeometry width="50" height="50" relative="1" as="geometry">
            <mxPoint x="350" y="3190" as="sourcePoint" />
            <mxPoint x="337" y="180" as="targetPoint" />
          </mxGeometry>
        </mxCell>
        <mxCell id="QMyI6lvO8tOyy5A7zQMX-17" value="" style="endArrow=none;dashed=1;html=1;dashPattern=1 3;strokeWidth=2;rounded=0;entryX=0.5;entryY=1;entryDx=0;entryDy=0;" edge="1" parent="1">
          <mxGeometry width="50" height="50" relative="1" as="geometry">
            <mxPoint x="583" y="3190" as="sourcePoint" />
            <mxPoint x="577" y="180" as="targetPoint" />
          </mxGeometry>
        </mxCell>
        <mxCell id="QMyI6lvO8tOyy5A7zQMX-18" value="" style="endArrow=none;dashed=1;html=1;dashPattern=1 3;strokeWidth=2;rounded=0;entryX=0.5;entryY=1;entryDx=0;entryDy=0;" edge="1" parent="1">
          <mxGeometry width="50" height="50" relative="1" as="geometry">
            <mxPoint x="823" y="3190" as="sourcePoint" />
            <mxPoint x="817" y="180" as="targetPoint" />
          </mxGeometry>
        </mxCell>
        <mxCell id="QMyI6lvO8tOyy5A7zQMX-19" value="" style="endArrow=none;dashed=1;html=1;dashPattern=1 3;strokeWidth=2;rounded=0;entryX=0.5;entryY=1;entryDx=0;entryDy=0;" edge="1" parent="1">
          <mxGeometry width="50" height="50" relative="1" as="geometry">
            <mxPoint x="1063" y="3190" as="sourcePoint" />
            <mxPoint x="1057" y="180" as="targetPoint" />
          </mxGeometry>
        </mxCell>
        <mxCell id="QMyI6lvO8tOyy5A7zQMX-20" value="" style="endArrow=none;dashed=1;html=1;dashPattern=1 3;strokeWidth=2;rounded=0;entryX=0.5;entryY=1;entryDx=0;entryDy=0;" edge="1" parent="1">
          <mxGeometry width="50" height="50" relative="1" as="geometry">
            <mxPoint x="1303" y="3190" as="sourcePoint" />
            <mxPoint x="1297" y="180" as="targetPoint" />
          </mxGeometry>
        </mxCell>
        <mxCell id="QMyI6lvO8tOyy5A7zQMX-21" value="" style="endArrow=none;dashed=1;html=1;dashPattern=1 3;strokeWidth=2;rounded=0;entryX=0.5;entryY=1;entryDx=0;entryDy=0;" edge="1" parent="1">
          <mxGeometry width="50" height="50" relative="1" as="geometry">
            <mxPoint x="1550" y="3190" as="sourcePoint" />
            <mxPoint x="1537" y="180" as="targetPoint" />
          </mxGeometry>
        </mxCell>
        <mxCell id="QMyI6lvO8tOyy5A7zQMX-22" value="" style="endArrow=classic;html=1;rounded=0;" edge="1" parent="1">
          <mxGeometry width="50" height="50" relative="1" as="geometry">
            <mxPoint x="100" y="280" as="sourcePoint" />
            <mxPoint x="340" y="280" as="targetPoint" />
          </mxGeometry>
        </mxCell>
        <mxCell id="QMyI6lvO8tOyy5A7zQMX-24" value="&lt;font style=&quot;font-size: 20px;&quot;&gt;Interact with frontend&lt;/font&gt;" style="edgeLabel;html=1;align=center;verticalAlign=middle;resizable=0;points=[];" vertex="1" connectable="0" parent="QMyI6lvO8tOyy5A7zQMX-22">
          <mxGeometry x="-0.0028" relative="1" as="geometry">
            <mxPoint y="-20" as="offset" />
          </mxGeometry>
        </mxCell>
        <mxCell id="QMyI6lvO8tOyy5A7zQMX-26" value="" style="endArrow=classic;html=1;rounded=0;" edge="1" parent="1">
          <mxGeometry width="50" height="50" relative="1" as="geometry">
            <mxPoint x="340" y="340" as="sourcePoint" />
            <mxPoint x="580" y="340" as="targetPoint" />
          </mxGeometry>
        </mxCell>
        <mxCell id="QMyI6lvO8tOyy5A7zQMX-27" value="&lt;div&gt;&lt;span style=&quot;font-size: 20px;&quot;&gt;Send request via REST API&lt;/span&gt;&lt;/div&gt;" style="edgeLabel;html=1;align=center;verticalAlign=middle;resizable=0;points=[];" vertex="1" connectable="0" parent="QMyI6lvO8tOyy5A7zQMX-26">
          <mxGeometry x="-0.0028" relative="1" as="geometry">
            <mxPoint y="-20" as="offset" />
          </mxGeometry>
        </mxCell>
        <mxCell id="QMyI6lvO8tOyy5A7zQMX-30" value="" style="endArrow=classic;html=1;rounded=0;" edge="1" parent="1">
          <mxGeometry width="50" height="50" relative="1" as="geometry">
            <mxPoint x="580" y="400" as="sourcePoint" />
            <mxPoint x="820" y="400" as="targetPoint" />
          </mxGeometry>
        </mxCell>
        <mxCell id="QMyI6lvO8tOyy5A7zQMX-31" value="&lt;div&gt;&lt;span style=&quot;font-size: 20px;&quot;&gt;Authenticate via Keycloak&lt;/span&gt;&lt;/div&gt;" style="edgeLabel;html=1;align=center;verticalAlign=middle;resizable=0;points=[];" vertex="1" connectable="0" parent="QMyI6lvO8tOyy5A7zQMX-30">
          <mxGeometry x="-0.0028" relative="1" as="geometry">
            <mxPoint y="-20" as="offset" />
          </mxGeometry>
        </mxCell>
        <mxCell id="QMyI6lvO8tOyy5A7zQMX-32" value="" style="endArrow=classic;html=1;rounded=0;" edge="1" parent="1">
          <mxGeometry width="50" height="50" relative="1" as="geometry">
            <mxPoint x="820" y="460" as="sourcePoint" />
            <mxPoint x="1060" y="460" as="targetPoint" />
          </mxGeometry>
        </mxCell>
        <mxCell id="QMyI6lvO8tOyy5A7zQMX-33" value="&lt;div&gt;&lt;span style=&quot;font-size: 20px;&quot;&gt;Store user data&lt;/span&gt;&lt;/div&gt;" style="edgeLabel;html=1;align=center;verticalAlign=middle;resizable=0;points=[];" vertex="1" connectable="0" parent="QMyI6lvO8tOyy5A7zQMX-32">
          <mxGeometry x="-0.0028" relative="1" as="geometry">
            <mxPoint y="-20" as="offset" />
          </mxGeometry>
        </mxCell>
        <mxCell id="QMyI6lvO8tOyy5A7zQMX-34" value="" style="endArrow=classic;html=1;rounded=0;" edge="1" parent="1">
          <mxGeometry width="50" height="50" relative="1" as="geometry">
            <mxPoint x="100" y="540" as="sourcePoint" />
            <mxPoint x="340" y="540" as="targetPoint" />
          </mxGeometry>
        </mxCell>
        <mxCell id="QMyI6lvO8tOyy5A7zQMX-35" value="&lt;div&gt;&lt;span style=&quot;font-size: 20px;&quot;&gt;Submit registration form&lt;/span&gt;&lt;/div&gt;" style="edgeLabel;html=1;align=center;verticalAlign=middle;resizable=0;points=[];" vertex="1" connectable="0" parent="QMyI6lvO8tOyy5A7zQMX-34">
          <mxGeometry x="-0.0028" relative="1" as="geometry">
            <mxPoint y="-20" as="offset" />
          </mxGeometry>
        </mxCell>
        <mxCell id="QMyI6lvO8tOyy5A7zQMX-36" value="" style="endArrow=classic;html=1;rounded=0;" edge="1" parent="1">
          <mxGeometry width="50" height="50" relative="1" as="geometry">
            <mxPoint x="340" y="580" as="sourcePoint" />
            <mxPoint x="580" y="580" as="targetPoint" />
          </mxGeometry>
        </mxCell>
        <mxCell id="QMyI6lvO8tOyy5A7zQMX-37" value="&lt;div&gt;&lt;span style=&quot;font-size: 20px;&quot;&gt;Send registration request&lt;/span&gt;&lt;/div&gt;" style="edgeLabel;html=1;align=center;verticalAlign=middle;resizable=0;points=[];" vertex="1" connectable="0" parent="QMyI6lvO8tOyy5A7zQMX-36">
          <mxGeometry x="-0.0028" relative="1" as="geometry">
            <mxPoint y="-20" as="offset" />
          </mxGeometry>
        </mxCell>
        <mxCell id="QMyI6lvO8tOyy5A7zQMX-38" value="" style="endArrow=classic;html=1;rounded=0;" edge="1" parent="1">
          <mxGeometry width="50" height="50" relative="1" as="geometry">
            <mxPoint x="580" y="630" as="sourcePoint" />
            <mxPoint x="820" y="630" as="targetPoint" />
          </mxGeometry>
        </mxCell>
        <mxCell id="QMyI6lvO8tOyy5A7zQMX-39" value="&lt;div&gt;&lt;span style=&quot;font-size: 20px;&quot;&gt;Register user in Keycloak&lt;/span&gt;&lt;/div&gt;" style="edgeLabel;html=1;align=center;verticalAlign=middle;resizable=0;points=[];" vertex="1" connectable="0" parent="QMyI6lvO8tOyy5A7zQMX-38">
          <mxGeometry x="-0.0028" relative="1" as="geometry">
            <mxPoint y="-20" as="offset" />
          </mxGeometry>
        </mxCell>
        <mxCell id="QMyI6lvO8tOyy5A7zQMX-40" value="" style="endArrow=classic;html=1;rounded=0;" edge="1" parent="1">
          <mxGeometry width="50" height="50" relative="1" as="geometry">
            <mxPoint x="820" y="710" as="sourcePoint" />
            <mxPoint x="1060" y="710" as="targetPoint" />
          </mxGeometry>
        </mxCell>
        <mxCell id="QMyI6lvO8tOyy5A7zQMX-41" value="&lt;div&gt;&lt;span style=&quot;font-size: 20px;&quot;&gt;Store user details in&amp;nbsp;&lt;/span&gt;&lt;/div&gt;&lt;div&gt;&lt;span style=&quot;font-size: 20px;&quot;&gt;Beep database&lt;/span&gt;&lt;/div&gt;" style="edgeLabel;html=1;align=center;verticalAlign=middle;resizable=0;points=[];" vertex="1" connectable="0" parent="QMyI6lvO8tOyy5A7zQMX-40">
          <mxGeometry x="-0.0028" relative="1" as="geometry">
            <mxPoint y="-20" as="offset" />
          </mxGeometry>
        </mxCell>
        <mxCell id="QMyI6lvO8tOyy5A7zQMX-42" value="" style="endArrow=classic;html=1;rounded=0;" edge="1" parent="1">
          <mxGeometry width="50" height="50" relative="1" as="geometry">
            <mxPoint x="100" y="820" as="sourcePoint" />
            <mxPoint x="340" y="820" as="targetPoint" />
          </mxGeometry>
        </mxCell>
        <mxCell id="QMyI6lvO8tOyy5A7zQMX-43" value="&lt;div&gt;&lt;span style=&quot;font-size: 20px;&quot;&gt;Choose &#39;Sign up with&amp;nbsp;&lt;/span&gt;&lt;/div&gt;&lt;div&gt;&lt;span style=&quot;font-size: 20px;&quot;&gt;Polytech&#39;&lt;/span&gt;&lt;/div&gt;" style="edgeLabel;html=1;align=center;verticalAlign=middle;resizable=0;points=[];" vertex="1" connectable="0" parent="QMyI6lvO8tOyy5A7zQMX-42">
          <mxGeometry x="-0.0028" relative="1" as="geometry">
            <mxPoint y="-20" as="offset" />
          </mxGeometry>
        </mxCell>
        <mxCell id="QMyI6lvO8tOyy5A7zQMX-44" value="" style="endArrow=classic;html=1;rounded=0;" edge="1" parent="1">
          <mxGeometry width="50" height="50" relative="1" as="geometry">
            <mxPoint x="340" y="900" as="sourcePoint" />
            <mxPoint x="820" y="900" as="targetPoint" />
          </mxGeometry>
        </mxCell>
        <mxCell id="QMyI6lvO8tOyy5A7zQMX-45" value="&lt;div&gt;&lt;span style=&quot;font-size: 20px;&quot;&gt;Redirect to Keycloak&lt;/span&gt;&lt;/div&gt;" style="edgeLabel;html=1;align=center;verticalAlign=middle;resizable=0;points=[];" vertex="1" connectable="0" parent="QMyI6lvO8tOyy5A7zQMX-44">
          <mxGeometry x="-0.0028" relative="1" as="geometry">
            <mxPoint y="-20" as="offset" />
          </mxGeometry>
        </mxCell>
        <mxCell id="QMyI6lvO8tOyy5A7zQMX-46" value="" style="endArrow=classic;html=1;rounded=0;" edge="1" parent="1">
          <mxGeometry width="50" height="50" relative="1" as="geometry">
            <mxPoint x="820" y="970" as="sourcePoint" />
            <mxPoint x="1300" y="970" as="targetPoint" />
          </mxGeometry>
        </mxCell>
        <mxCell id="QMyI6lvO8tOyy5A7zQMX-47" value="&lt;div&gt;&lt;span style=&quot;font-size: 20px;&quot;&gt;Redirect to Polytech LDAP&lt;/span&gt;&lt;/div&gt;" style="edgeLabel;html=1;align=center;verticalAlign=middle;resizable=0;points=[];" vertex="1" connectable="0" parent="QMyI6lvO8tOyy5A7zQMX-46">
          <mxGeometry x="-0.0028" relative="1" as="geometry">
            <mxPoint y="-20" as="offset" />
          </mxGeometry>
        </mxCell>
        <mxCell id="QMyI6lvO8tOyy5A7zQMX-48" value="" style="endArrow=classic;html=1;rounded=0;dashed=1;" edge="1" parent="1">
          <mxGeometry width="50" height="50" relative="1" as="geometry">
            <mxPoint x="1300" y="1060" as="sourcePoint" />
            <mxPoint x="820" y="1060" as="targetPoint" />
          </mxGeometry>
        </mxCell>
        <mxCell id="QMyI6lvO8tOyy5A7zQMX-50" value="&lt;font style=&quot;font-size: 20px;&quot;&gt;Return token after verification&lt;/font&gt;" style="edgeLabel;html=1;align=center;verticalAlign=middle;resizable=0;points=[];" vertex="1" connectable="0" parent="QMyI6lvO8tOyy5A7zQMX-48">
          <mxGeometry x="0.011" y="-1" relative="1" as="geometry">
            <mxPoint x="2" y="-19" as="offset" />
          </mxGeometry>
        </mxCell>
        <mxCell id="QMyI6lvO8tOyy5A7zQMX-51" value="" style="endArrow=classic;html=1;rounded=0;" edge="1" parent="1">
          <mxGeometry width="50" height="50" relative="1" as="geometry">
            <mxPoint x="820" y="1140" as="sourcePoint" />
            <mxPoint x="1060" y="1140" as="targetPoint" />
          </mxGeometry>
        </mxCell>
        <mxCell id="QMyI6lvO8tOyy5A7zQMX-52" value="&lt;div&gt;&lt;span style=&quot;font-size: 20px;&quot;&gt;Create Beep user&lt;/span&gt;&lt;/div&gt;" style="edgeLabel;html=1;align=center;verticalAlign=middle;resizable=0;points=[];" vertex="1" connectable="0" parent="QMyI6lvO8tOyy5A7zQMX-51">
          <mxGeometry x="-0.0028" relative="1" as="geometry">
            <mxPoint y="-20" as="offset" />
          </mxGeometry>
        </mxCell>
        <mxCell id="QMyI6lvO8tOyy5A7zQMX-53" value="" style="endArrow=classic;html=1;rounded=0;" edge="1" parent="1">
          <mxGeometry width="50" height="50" relative="1" as="geometry">
            <mxPoint x="100" y="1270" as="sourcePoint" />
            <mxPoint x="340" y="1270" as="targetPoint" />
          </mxGeometry>
        </mxCell>
        <mxCell id="QMyI6lvO8tOyy5A7zQMX-54" value="&lt;div&gt;&lt;span style=&quot;font-size: 20px;&quot;&gt;Choose &#39;Sign up with&amp;nbsp;&lt;/span&gt;&lt;/div&gt;&lt;div&gt;&lt;span style=&quot;font-size: 20px;&quot;&gt;Google&#39;&lt;/span&gt;&lt;/div&gt;" style="edgeLabel;html=1;align=center;verticalAlign=middle;resizable=0;points=[];" vertex="1" connectable="0" parent="QMyI6lvO8tOyy5A7zQMX-53">
          <mxGeometry x="-0.0028" relative="1" as="geometry">
            <mxPoint y="-20" as="offset" />
          </mxGeometry>
        </mxCell>
        <mxCell id="QMyI6lvO8tOyy5A7zQMX-55" value="" style="endArrow=classic;html=1;rounded=0;" edge="1" parent="1">
          <mxGeometry width="50" height="50" relative="1" as="geometry">
            <mxPoint x="340" y="1350" as="sourcePoint" />
            <mxPoint x="820" y="1350" as="targetPoint" />
          </mxGeometry>
        </mxCell>
        <mxCell id="QMyI6lvO8tOyy5A7zQMX-56" value="&lt;div&gt;&lt;span style=&quot;font-size: 20px;&quot;&gt;Redirect to Keycloak&lt;/span&gt;&lt;/div&gt;" style="edgeLabel;html=1;align=center;verticalAlign=middle;resizable=0;points=[];" vertex="1" connectable="0" parent="QMyI6lvO8tOyy5A7zQMX-55">
          <mxGeometry x="-0.0028" relative="1" as="geometry">
            <mxPoint y="-20" as="offset" />
          </mxGeometry>
        </mxCell>
        <mxCell id="QMyI6lvO8tOyy5A7zQMX-57" value="" style="endArrow=classic;html=1;rounded=0;" edge="1" parent="1">
          <mxGeometry width="50" height="50" relative="1" as="geometry">
            <mxPoint x="820" y="1420" as="sourcePoint" />
            <mxPoint x="1550" y="1420" as="targetPoint" />
          </mxGeometry>
        </mxCell>
        <mxCell id="QMyI6lvO8tOyy5A7zQMX-58" value="&lt;div&gt;&lt;span style=&quot;font-size: 20px;&quot;&gt;Redirect to Google OAuth&lt;/span&gt;&lt;/div&gt;" style="edgeLabel;html=1;align=center;verticalAlign=middle;resizable=0;points=[];" vertex="1" connectable="0" parent="QMyI6lvO8tOyy5A7zQMX-57">
          <mxGeometry x="-0.0028" relative="1" as="geometry">
            <mxPoint y="-20" as="offset" />
          </mxGeometry>
        </mxCell>
        <mxCell id="QMyI6lvO8tOyy5A7zQMX-59" value="" style="endArrow=classic;html=1;rounded=0;dashed=1;" edge="1" parent="1">
          <mxGeometry width="50" height="50" relative="1" as="geometry">
            <mxPoint x="1550" y="1510" as="sourcePoint" />
            <mxPoint x="820" y="1510" as="targetPoint" />
          </mxGeometry>
        </mxCell>
        <mxCell id="QMyI6lvO8tOyy5A7zQMX-60" value="&lt;font style=&quot;font-size: 20px;&quot;&gt;Return token after verification&lt;/font&gt;" style="edgeLabel;html=1;align=center;verticalAlign=middle;resizable=0;points=[];" vertex="1" connectable="0" parent="QMyI6lvO8tOyy5A7zQMX-59">
          <mxGeometry x="0.011" y="-1" relative="1" as="geometry">
            <mxPoint x="2" y="-19" as="offset" />
          </mxGeometry>
        </mxCell>
        <mxCell id="QMyI6lvO8tOyy5A7zQMX-61" value="" style="endArrow=classic;html=1;rounded=0;" edge="1" parent="1">
          <mxGeometry width="50" height="50" relative="1" as="geometry">
            <mxPoint x="820" y="1590" as="sourcePoint" />
            <mxPoint x="1060" y="1590" as="targetPoint" />
          </mxGeometry>
        </mxCell>
        <mxCell id="QMyI6lvO8tOyy5A7zQMX-62" value="&lt;div&gt;&lt;span style=&quot;font-size: 20px;&quot;&gt;Create Beep user&lt;/span&gt;&lt;/div&gt;" style="edgeLabel;html=1;align=center;verticalAlign=middle;resizable=0;points=[];" vertex="1" connectable="0" parent="QMyI6lvO8tOyy5A7zQMX-61">
          <mxGeometry x="-0.0028" relative="1" as="geometry">
            <mxPoint y="-20" as="offset" />
          </mxGeometry>
        </mxCell>
        <mxCell id="QMyI6lvO8tOyy5A7zQMX-65" value="&lt;font style=&quot;font-size: 30px;&quot;&gt;Sequence diagram Keycloak&lt;/font&gt;" style="swimlane;whiteSpace=wrap;html=1;gradientColor=none;fillColor=default;" vertex="1" parent="1">
          <mxGeometry x="-80" y="20" width="1750" height="3140" as="geometry" />
        </mxCell>
        <mxCell id="QMyI6lvO8tOyy5A7zQMX-66" value="" style="endArrow=classic;html=1;rounded=0;" edge="1" parent="QMyI6lvO8tOyy5A7zQMX-65">
          <mxGeometry width="50" height="50" relative="1" as="geometry">
            <mxPoint x="190" y="1670" as="sourcePoint" />
            <mxPoint x="430" y="1670" as="targetPoint" />
          </mxGeometry>
        </mxCell>
        <mxCell id="QMyI6lvO8tOyy5A7zQMX-67" value="&lt;div&gt;&lt;span style=&quot;font-size: 20px;&quot;&gt;Submit login request&lt;/span&gt;&lt;/div&gt;" style="edgeLabel;html=1;align=center;verticalAlign=middle;resizable=0;points=[];" vertex="1" connectable="0" parent="QMyI6lvO8tOyy5A7zQMX-66">
          <mxGeometry x="-0.0028" relative="1" as="geometry">
            <mxPoint y="-20" as="offset" />
          </mxGeometry>
        </mxCell>
        <mxCell id="QMyI6lvO8tOyy5A7zQMX-69" value="" style="endArrow=classic;html=1;rounded=0;" edge="1" parent="QMyI6lvO8tOyy5A7zQMX-65">
          <mxGeometry width="50" height="50" relative="1" as="geometry">
            <mxPoint x="420" y="1750" as="sourcePoint" />
            <mxPoint x="660" y="1750" as="targetPoint" />
          </mxGeometry>
        </mxCell>
        <mxCell id="QMyI6lvO8tOyy5A7zQMX-70" value="&lt;div&gt;&lt;span style=&quot;font-size: 20px;&quot;&gt;Send login request&amp;nbsp;&lt;/span&gt;&lt;/div&gt;&lt;div&gt;&lt;span style=&quot;font-size: 20px;&quot;&gt;to backend&lt;/span&gt;&lt;/div&gt;" style="edgeLabel;html=1;align=center;verticalAlign=middle;resizable=0;points=[];" vertex="1" connectable="0" parent="QMyI6lvO8tOyy5A7zQMX-69">
          <mxGeometry x="-0.0028" relative="1" as="geometry">
            <mxPoint y="-20" as="offset" />
          </mxGeometry>
        </mxCell>
        <mxCell id="QMyI6lvO8tOyy5A7zQMX-71" value="" style="endArrow=classic;html=1;rounded=0;" edge="1" parent="QMyI6lvO8tOyy5A7zQMX-65">
          <mxGeometry width="50" height="50" relative="1" as="geometry">
            <mxPoint x="660" y="1820" as="sourcePoint" />
            <mxPoint x="900" y="1820" as="targetPoint" />
          </mxGeometry>
        </mxCell>
        <mxCell id="QMyI6lvO8tOyy5A7zQMX-72" value="&lt;div&gt;&lt;span style=&quot;font-size: 20px;&quot;&gt;Validate credentials&amp;nbsp;&lt;/span&gt;&lt;/div&gt;&lt;div&gt;&lt;span style=&quot;font-size: 20px;&quot;&gt;with Keycloak&lt;/span&gt;&lt;/div&gt;" style="edgeLabel;html=1;align=center;verticalAlign=middle;resizable=0;points=[];" vertex="1" connectable="0" parent="QMyI6lvO8tOyy5A7zQMX-71">
          <mxGeometry x="-0.0028" relative="1" as="geometry">
            <mxPoint y="-20" as="offset" />
          </mxGeometry>
        </mxCell>
        <mxCell id="QMyI6lvO8tOyy5A7zQMX-73" value="" style="endArrow=classic;html=1;rounded=0;dashed=1;" edge="1" parent="QMyI6lvO8tOyy5A7zQMX-65">
          <mxGeometry width="50" height="50" relative="1" as="geometry">
            <mxPoint x="900" y="1900" as="sourcePoint" />
            <mxPoint x="660" y="1900" as="targetPoint" />
          </mxGeometry>
        </mxCell>
        <mxCell id="QMyI6lvO8tOyy5A7zQMX-74" value="&lt;font style=&quot;font-size: 20px;&quot;&gt;Return jwt&lt;/font&gt;" style="edgeLabel;html=1;align=center;verticalAlign=middle;resizable=0;points=[];" vertex="1" connectable="0" parent="QMyI6lvO8tOyy5A7zQMX-73">
          <mxGeometry x="0.011" y="-1" relative="1" as="geometry">
            <mxPoint x="2" y="-19" as="offset" />
          </mxGeometry>
        </mxCell>
        <mxCell id="QMyI6lvO8tOyy5A7zQMX-75" value="" style="endArrow=classic;html=1;rounded=0;dashed=1;" edge="1" parent="QMyI6lvO8tOyy5A7zQMX-65">
          <mxGeometry width="50" height="50" relative="1" as="geometry">
            <mxPoint x="660" y="1960" as="sourcePoint" />
            <mxPoint x="190" y="1960" as="targetPoint" />
          </mxGeometry>
        </mxCell>
        <mxCell id="QMyI6lvO8tOyy5A7zQMX-76" value="&lt;font style=&quot;font-size: 20px;&quot;&gt;Grand session to user&lt;/font&gt;" style="edgeLabel;html=1;align=center;verticalAlign=middle;resizable=0;points=[];" vertex="1" connectable="0" parent="QMyI6lvO8tOyy5A7zQMX-75">
          <mxGeometry x="0.011" y="-1" relative="1" as="geometry">
            <mxPoint x="2" y="-19" as="offset" />
          </mxGeometry>
        </mxCell>
        <mxCell id="QMyI6lvO8tOyy5A7zQMX-79" value="" style="endArrow=classic;html=1;rounded=0;" edge="1" parent="QMyI6lvO8tOyy5A7zQMX-65">
          <mxGeometry width="50" height="50" relative="1" as="geometry">
            <mxPoint x="190" y="2060" as="sourcePoint" />
            <mxPoint x="430" y="2060" as="targetPoint" />
          </mxGeometry>
        </mxCell>
        <mxCell id="QMyI6lvO8tOyy5A7zQMX-80" value="&lt;div&gt;&lt;span style=&quot;font-size: 20px;&quot;&gt;Select &#39;Login with&amp;nbsp;&lt;/span&gt;&lt;/div&gt;&lt;div&gt;&lt;span style=&quot;font-size: 20px;&quot;&gt;Polytech&#39;&lt;/span&gt;&lt;/div&gt;" style="edgeLabel;html=1;align=center;verticalAlign=middle;resizable=0;points=[];" vertex="1" connectable="0" parent="QMyI6lvO8tOyy5A7zQMX-79">
          <mxGeometry x="-0.0028" relative="1" as="geometry">
            <mxPoint y="-20" as="offset" />
          </mxGeometry>
        </mxCell>
        <mxCell id="QMyI6lvO8tOyy5A7zQMX-81" value="" style="endArrow=classic;html=1;rounded=0;" edge="1" parent="QMyI6lvO8tOyy5A7zQMX-65">
          <mxGeometry width="50" height="50" relative="1" as="geometry">
            <mxPoint x="430" y="2140" as="sourcePoint" />
            <mxPoint x="910" y="2140" as="targetPoint" />
          </mxGeometry>
        </mxCell>
        <mxCell id="QMyI6lvO8tOyy5A7zQMX-82" value="&lt;div&gt;&lt;span style=&quot;font-size: 20px;&quot;&gt;Redirect to Keycloak&lt;/span&gt;&lt;/div&gt;" style="edgeLabel;html=1;align=center;verticalAlign=middle;resizable=0;points=[];" vertex="1" connectable="0" parent="QMyI6lvO8tOyy5A7zQMX-81">
          <mxGeometry x="-0.0028" relative="1" as="geometry">
            <mxPoint y="-20" as="offset" />
          </mxGeometry>
        </mxCell>
        <mxCell id="QMyI6lvO8tOyy5A7zQMX-83" value="" style="endArrow=classic;html=1;rounded=0;" edge="1" parent="QMyI6lvO8tOyy5A7zQMX-65">
          <mxGeometry width="50" height="50" relative="1" as="geometry">
            <mxPoint x="900" y="2210" as="sourcePoint" />
            <mxPoint x="1380" y="2210" as="targetPoint" />
          </mxGeometry>
        </mxCell>
        <mxCell id="QMyI6lvO8tOyy5A7zQMX-84" value="&lt;div&gt;&lt;span style=&quot;font-size: 20px;&quot;&gt;Redirect to Polytech LDAP&lt;/span&gt;&lt;/div&gt;" style="edgeLabel;html=1;align=center;verticalAlign=middle;resizable=0;points=[];" vertex="1" connectable="0" parent="QMyI6lvO8tOyy5A7zQMX-83">
          <mxGeometry x="-0.0028" relative="1" as="geometry">
            <mxPoint y="-20" as="offset" />
          </mxGeometry>
        </mxCell>
        <mxCell id="QMyI6lvO8tOyy5A7zQMX-85" value="" style="endArrow=classic;html=1;rounded=0;dashed=1;" edge="1" parent="QMyI6lvO8tOyy5A7zQMX-65">
          <mxGeometry width="50" height="50" relative="1" as="geometry">
            <mxPoint x="1380" y="2280" as="sourcePoint" />
            <mxPoint x="900" y="2280" as="targetPoint" />
          </mxGeometry>
        </mxCell>
        <mxCell id="QMyI6lvO8tOyy5A7zQMX-86" value="&lt;font style=&quot;font-size: 20px;&quot;&gt;Return authentication token&lt;/font&gt;" style="edgeLabel;html=1;align=center;verticalAlign=middle;resizable=0;points=[];" vertex="1" connectable="0" parent="QMyI6lvO8tOyy5A7zQMX-85">
          <mxGeometry x="0.011" y="-1" relative="1" as="geometry">
            <mxPoint x="2" y="-19" as="offset" />
          </mxGeometry>
        </mxCell>
        <mxCell id="QMyI6lvO8tOyy5A7zQMX-87" value="" style="endArrow=classic;html=1;rounded=0;dashed=1;" edge="1" parent="QMyI6lvO8tOyy5A7zQMX-65">
          <mxGeometry width="50" height="50" relative="1" as="geometry">
            <mxPoint x="900" y="2350" as="sourcePoint" />
            <mxPoint x="660" y="2350" as="targetPoint" />
          </mxGeometry>
        </mxCell>
        <mxCell id="QMyI6lvO8tOyy5A7zQMX-88" value="&lt;font style=&quot;font-size: 20px;&quot;&gt;Generate jwt&lt;/font&gt;" style="edgeLabel;html=1;align=center;verticalAlign=middle;resizable=0;points=[];" vertex="1" connectable="0" parent="QMyI6lvO8tOyy5A7zQMX-87">
          <mxGeometry x="0.011" y="-1" relative="1" as="geometry">
            <mxPoint x="2" y="-19" as="offset" />
          </mxGeometry>
        </mxCell>
        <mxCell id="QMyI6lvO8tOyy5A7zQMX-89" value="" style="endArrow=classic;html=1;rounded=0;dashed=1;" edge="1" parent="QMyI6lvO8tOyy5A7zQMX-65">
          <mxGeometry width="50" height="50" relative="1" as="geometry">
            <mxPoint x="660" y="2410" as="sourcePoint" />
            <mxPoint x="190" y="2410" as="targetPoint" />
          </mxGeometry>
        </mxCell>
        <mxCell id="QMyI6lvO8tOyy5A7zQMX-90" value="&lt;font style=&quot;font-size: 20px;&quot;&gt;Grant session&lt;/font&gt;" style="edgeLabel;html=1;align=center;verticalAlign=middle;resizable=0;points=[];" vertex="1" connectable="0" parent="QMyI6lvO8tOyy5A7zQMX-89">
          <mxGeometry x="0.011" y="-1" relative="1" as="geometry">
            <mxPoint x="2" y="-19" as="offset" />
          </mxGeometry>
        </mxCell>
        <mxCell id="QMyI6lvO8tOyy5A7zQMX-91" value="" style="endArrow=classic;html=1;rounded=0;" edge="1" parent="QMyI6lvO8tOyy5A7zQMX-65">
          <mxGeometry width="50" height="50" relative="1" as="geometry">
            <mxPoint x="190" y="2520" as="sourcePoint" />
            <mxPoint x="430" y="2520" as="targetPoint" />
          </mxGeometry>
        </mxCell>
        <mxCell id="QMyI6lvO8tOyy5A7zQMX-92" value="&lt;div&gt;&lt;span style=&quot;font-size: 20px;&quot;&gt;Select &#39;Link Google account&lt;/span&gt;&lt;span style=&quot;font-size: 20px; background-color: light-dark(#ffffff, var(--ge-dark-color, #121212)); color: light-dark(rgb(0, 0, 0), rgb(255, 255, 255));&quot;&gt;&#39;&lt;/span&gt;&lt;/div&gt;" style="edgeLabel;html=1;align=center;verticalAlign=middle;resizable=0;points=[];" vertex="1" connectable="0" parent="QMyI6lvO8tOyy5A7zQMX-91">
          <mxGeometry x="-0.0028" relative="1" as="geometry">
            <mxPoint y="-20" as="offset" />
          </mxGeometry>
        </mxCell>
        <mxCell id="QMyI6lvO8tOyy5A7zQMX-93" value="" style="endArrow=classic;html=1;rounded=0;" edge="1" parent="QMyI6lvO8tOyy5A7zQMX-65">
          <mxGeometry width="50" height="50" relative="1" as="geometry">
            <mxPoint x="430" y="2600" as="sourcePoint" />
            <mxPoint x="910" y="2600" as="targetPoint" />
          </mxGeometry>
        </mxCell>
        <mxCell id="QMyI6lvO8tOyy5A7zQMX-94" value="&lt;div&gt;&lt;span style=&quot;font-size: 20px;&quot;&gt;Redirect to Keycloak&lt;/span&gt;&lt;/div&gt;" style="edgeLabel;html=1;align=center;verticalAlign=middle;resizable=0;points=[];" vertex="1" connectable="0" parent="QMyI6lvO8tOyy5A7zQMX-93">
          <mxGeometry x="-0.0028" relative="1" as="geometry">
            <mxPoint y="-20" as="offset" />
          </mxGeometry>
        </mxCell>
        <mxCell id="QMyI6lvO8tOyy5A7zQMX-95" value="" style="endArrow=classic;html=1;rounded=0;" edge="1" parent="QMyI6lvO8tOyy5A7zQMX-65">
          <mxGeometry width="50" height="50" relative="1" as="geometry">
            <mxPoint x="900" y="2670" as="sourcePoint" />
            <mxPoint x="1630" y="2670" as="targetPoint" />
          </mxGeometry>
        </mxCell>
        <mxCell id="QMyI6lvO8tOyy5A7zQMX-96" value="&lt;div&gt;&lt;span style=&quot;font-size: 20px;&quot;&gt;Redirect to Google OAuth&lt;/span&gt;&lt;/div&gt;" style="edgeLabel;html=1;align=center;verticalAlign=middle;resizable=0;points=[];" vertex="1" connectable="0" parent="QMyI6lvO8tOyy5A7zQMX-95">
          <mxGeometry x="-0.0028" relative="1" as="geometry">
            <mxPoint y="-20" as="offset" />
          </mxGeometry>
        </mxCell>
        <mxCell id="QMyI6lvO8tOyy5A7zQMX-97" value="" style="endArrow=classic;html=1;rounded=0;dashed=1;" edge="1" parent="QMyI6lvO8tOyy5A7zQMX-65">
          <mxGeometry width="50" height="50" relative="1" as="geometry">
            <mxPoint x="1630" y="2740" as="sourcePoint" />
            <mxPoint x="900" y="2740" as="targetPoint" />
          </mxGeometry>
        </mxCell>
        <mxCell id="QMyI6lvO8tOyy5A7zQMX-98" value="&lt;font style=&quot;font-size: 20px;&quot;&gt;Return authentication token&lt;/font&gt;" style="edgeLabel;html=1;align=center;verticalAlign=middle;resizable=0;points=[];" vertex="1" connectable="0" parent="QMyI6lvO8tOyy5A7zQMX-97">
          <mxGeometry x="0.011" y="-1" relative="1" as="geometry">
            <mxPoint x="2" y="-19" as="offset" />
          </mxGeometry>
        </mxCell>
        <mxCell id="QMyI6lvO8tOyy5A7zQMX-103" value="" style="endArrow=classic;html=1;rounded=0;" edge="1" parent="QMyI6lvO8tOyy5A7zQMX-65">
          <mxGeometry width="50" height="50" relative="1" as="geometry">
            <mxPoint x="900" y="2820" as="sourcePoint" />
            <mxPoint x="1140" y="2820" as="targetPoint" />
          </mxGeometry>
        </mxCell>
        <mxCell id="QMyI6lvO8tOyy5A7zQMX-104" value="&lt;div&gt;&lt;span style=&quot;font-size: 20px;&quot;&gt;Link Google account to&amp;nbsp;&lt;/span&gt;&lt;/div&gt;&lt;div&gt;&lt;span style=&quot;font-size: 20px;&quot;&gt;Beep account&lt;/span&gt;&lt;/div&gt;" style="edgeLabel;html=1;align=center;verticalAlign=middle;resizable=0;points=[];" vertex="1" connectable="0" parent="QMyI6lvO8tOyy5A7zQMX-103">
          <mxGeometry x="-0.0028" relative="1" as="geometry">
            <mxPoint y="-20" as="offset" />
          </mxGeometry>
        </mxCell>
      </root>
    </mxGraphModel>
  </diagram>
</mxfile>
